<svg xmlns="http://www.w3.org/2000/svg" viewBox="0 0 312 240">
  <path fill="#fff" fill-rule="evenodd" d="M 0 240 L 0 0 L 80.348 0 L 80.348 73.514 L 115.826 0 L 196.174 0 L 196.174 73.514 L 231.652 0 L 312 0 L 312 240 L 231.652 240 L 231.652 166.486 L 196.174 240 L 115.826 240 L 115.826 166.486 L 80.348 240 L 0 240 Z M 67.826 12.522 L 12.522 12.522 L 12.522 214.054 L 67.826 99.459 L 67.826 12.522 Z M 244.174 227.478 L 299.478 227.478 L 299.478 25.946 L 244.174 140.541 L 244.174 227.478 Z M 188.313 227.478 L 292.053 12.522 L 239.513 12.522 L 135.773 227.478 L 188.313 227.478 Z M 176.227 12.522 L 123.687 12.522 L 19.947 227.478 L 72.487 227.478 L 176.227 12.522 Z M 183.652 25.946 L 128.348 140.541 L 128.348 214.054 L 183.652 99.459 L 183.652 25.946 Z"/>
</svg>
