<svg xmlns="http://www.w3.org/2000/svg" width="192" height="192" viewBox="0 0 96 96">
<!-- Original White Noise category illustration, created for this project.
     Licensed under the project's GNU AGPL v3 license; no third-party artwork. -->
<title>Read aloud settings illustration</title>
<defs>
<linearGradient id="blue" x1="0" y1="0" x2=".7" y2="1"><stop stop-color="#a5e5ff"/><stop offset=".46" stop-color="#4caddd"/><stop offset="1" stop-color="#2873b6"/></linearGradient>
<linearGradient id="navy" x1="0" y1="0" x2=".6" y2="1"><stop stop-color="#6789a6"/><stop offset="1" stop-color="#344d70"/></linearGradient>
<linearGradient id="silver" x1="0" y1="0" x2=".5" y2="1"><stop stop-color="#fff"/><stop offset=".48" stop-color="#dce6ec"/><stop offset="1" stop-color="#8da5b8"/></linearGradient>
<linearGradient id="gold" x1="0" y1="0" x2=".6" y2="1"><stop stop-color="#fff4b5"/><stop offset=".42" stop-color="#f9cf66"/><stop offset="1" stop-color="#d99536"/></linearGradient>
<linearGradient id="green" x1="0" y1="0" x2=".6" y2="1"><stop stop-color="#d7f4a5"/><stop offset=".5" stop-color="#9ed06c"/><stop offset="1" stop-color="#5d9d58"/></linearGradient>
<linearGradient id="red" x1="0" y1="0" x2=".6" y2="1"><stop stop-color="#ffc0a2"/><stop offset=".5" stop-color="#e6826a"/><stop offset="1" stop-color="#b84d49"/></linearGradient>
<filter id="shadow" x="-.3" y="-1" width="1.6" height="3"><feGaussianBlur stdDeviation="2"/></filter>
</defs>
<ellipse cx="48" cy="83" rx="35" ry="5" fill="#213a59" opacity=".22" filter="url(#shadow)"/>
<path d="M14 10h36l12 12v52H14Z" fill="url(#silver)" stroke="#526d8b" stroke-width="2" stroke-linejoin="round"/>
<path d="M50 10v12h12" fill="#c3d3de" stroke="#526d8b" stroke-width="2" stroke-linejoin="round"/>
<path d="M21 26h22m-22 8h32m-32 8h26m-26 8h20" stroke="#7d94a7" stroke-width="3" stroke-linecap="round"/>
<path d="M17 13h30" stroke="#fff" stroke-width="2" stroke-linecap="round"/>
<path d="M36 56h9l14-12v36L45 68h-9Z" fill="url(#blue)" stroke="#2f6a9a" stroke-width="2" stroke-linejoin="round"/>
<path d="M39 59h5l12-10" fill="none" stroke="#e4faff" stroke-width="2" stroke-linecap="round" stroke-linejoin="round"/>
<path d="M66 52a12 12 0 0 1 0 20m7-27a21 21 0 0 1 0 34" fill="none" stroke="#e0a642" stroke-width="5" stroke-linecap="round"/>
<path d="M66 52a12 12 0 0 1 0 20m7-27a21 21 0 0 1 0 34" fill="none" stroke="#fff4b5" stroke-width="1.5" stroke-linecap="round"/>
</svg>
