<svg xmlns="http://www.w3.org/2000/svg" width="192" height="192" viewBox="0 0 96 96">
<!-- Original White Noise category illustration, created for this project.
     Licensed under the project's GNU AGPL v3 license; no third-party artwork. -->
<title>Speech settings illustration</title>
<defs>
<linearGradient id="blue" x1="0" y1="0" x2=".7" y2="1"><stop stop-color="#a5e5ff"/><stop offset=".46" stop-color="#4caddd"/><stop offset="1" stop-color="#2873b6"/></linearGradient>
<linearGradient id="navy" x1="0" y1="0" x2=".6" y2="1"><stop stop-color="#6789a6"/><stop offset="1" stop-color="#344d70"/></linearGradient>
<linearGradient id="silver" x1="0" y1="0" x2=".5" y2="1"><stop stop-color="#fff"/><stop offset=".48" stop-color="#dce6ec"/><stop offset="1" stop-color="#8da5b8"/></linearGradient>
<linearGradient id="gold" x1="0" y1="0" x2=".6" y2="1"><stop stop-color="#fff4b5"/><stop offset=".42" stop-color="#f9cf66"/><stop offset="1" stop-color="#d99536"/></linearGradient>
<linearGradient id="green" x1="0" y1="0" x2=".6" y2="1"><stop stop-color="#d7f4a5"/><stop offset=".5" stop-color="#9ed06c"/><stop offset="1" stop-color="#5d9d58"/></linearGradient>
<linearGradient id="red" x1="0" y1="0" x2=".6" y2="1"><stop stop-color="#ffc0a2"/><stop offset=".5" stop-color="#e6826a"/><stop offset="1" stop-color="#b84d49"/></linearGradient>
<filter id="shadow" x="-.3" y="-1" width="1.6" height="3"><feGaussianBlur stdDeviation="2"/></filter>
</defs>
<ellipse cx="48" cy="84" rx="28" ry="5" fill="#213a59" opacity=".22" filter="url(#shadow)"/>
<path d="M45 62h7v15h-7Z" fill="url(#navy)" stroke="#405d79" stroke-width="2"/>
<path d="M30 78q18-8 36 0v4H30Z" fill="url(#silver)" stroke="#526d8b" stroke-width="2"/>
<rect x="33" y="11" width="30" height="48" rx="15" fill="url(#silver)" stroke="#526d8b" stroke-width="2"/>
<path d="M34 36h28v8a14 14 0 0 1-28 0Z" fill="url(#blue)"/>
<path d="M41 17v13m7-15v15m7-13v13" stroke="#7d94a7" stroke-width="2.5" stroke-linecap="round"/>
<path d="M24 39v7a24 24 0 0 0 48 0v-7" fill="none" stroke="#466985" stroke-width="6" stroke-linecap="round"/>
<path d="M23 40v6a25 25 0 0 0 6 16" fill="none" stroke="#b7d8e8" stroke-width="2" stroke-linecap="round"/>
<path d="M48 44v5" stroke="#e4faff" stroke-width="3" stroke-linecap="round"/>
</svg>
