<svg xmlns="http://www.w3.org/2000/svg" width="192" height="192" viewBox="0 0 96 96">
<!-- Original White Noise category illustration, created for this project.
     Licensed under the project's GNU AGPL v3 license; no third-party artwork. -->
<title>Storage settings illustration</title>
<defs>
<linearGradient id="blue" x1="0" y1="0" x2=".7" y2="1"><stop stop-color="#a5e5ff"/><stop offset=".46" stop-color="#4caddd"/><stop offset="1" stop-color="#2873b6"/></linearGradient>
<linearGradient id="navy" x1="0" y1="0" x2=".6" y2="1"><stop stop-color="#6789a6"/><stop offset="1" stop-color="#344d70"/></linearGradient>
<linearGradient id="silver" x1="0" y1="0" x2=".5" y2="1"><stop stop-color="#fff"/><stop offset=".48" stop-color="#dce6ec"/><stop offset="1" stop-color="#8da5b8"/></linearGradient>
<linearGradient id="gold" x1="0" y1="0" x2=".6" y2="1"><stop stop-color="#fff4b5"/><stop offset=".42" stop-color="#f9cf66"/><stop offset="1" stop-color="#d99536"/></linearGradient>
<linearGradient id="green" x1="0" y1="0" x2=".6" y2="1"><stop stop-color="#d7f4a5"/><stop offset=".5" stop-color="#9ed06c"/><stop offset="1" stop-color="#5d9d58"/></linearGradient>
<linearGradient id="red" x1="0" y1="0" x2=".6" y2="1"><stop stop-color="#ffc0a2"/><stop offset=".5" stop-color="#e6826a"/><stop offset="1" stop-color="#b84d49"/></linearGradient>
<filter id="shadow" x="-.3" y="-1" width="1.6" height="3"><feGaussianBlur stdDeviation="2"/></filter>
</defs>
<ellipse cx="48" cy="82" rx="35" ry="5" fill="#213a59" opacity=".22" filter="url(#shadow)"/>
<path d="M24 23h48l11 36H13Z" fill="url(#silver)" stroke="#526d8b" stroke-width="2" stroke-linejoin="round"/>
<path d="M27 27h42l7 24H20Z" fill="#b5c9d7"/>
<ellipse cx="48" cy="39" rx="18" ry="10" fill="url(#silver)" stroke="#829bb0" stroke-width="1.5"/>
<ellipse cx="48" cy="39" rx="6" ry="3.5" fill="#758fa7"/>
<path d="m48 39 19 10 6-3" fill="none" stroke="#6b849b" stroke-width="3" stroke-linejoin="round"/>
<rect x="12" y="55" width="72" height="23" rx="5" fill="url(#navy)" stroke="#405d79" stroke-width="2"/>
<path d="M17 58h62" stroke="#a4becf" stroke-width="2" stroke-linecap="round"/>
<rect x="20" y="65" width="31" height="5" rx="2" fill="#283d54"/>
<circle cx="72" cy="67" r="3" fill="#b7ef9f"/>
<path d="M26 24h44" stroke="#fff" stroke-width="2" stroke-linecap="round"/>
</svg>
